# Blender v2.79 (sub 0) OBJ File: ''
# www.blender.org
mtllib skybox.mtl
o Cube
v 1.000000 -1.000000 -1.000000
v 1.000000 -1.000000 1.000000
v -1.015397 -1.000000 1.000000
v -1.015397 -1.000000 -1.000000
v 1.000000 1.000000 -0.999999
v 0.999999 1.000000 1.000001
v -1.015397 1.000000 1.000000
v -1.015397 1.000000 -1.000000
vt 0.495844 0.005543
vt 0.254162 0.327790
vt 0.254162 0.005543
vt 0.495974 0.994632
vt 0.254030 0.672044
vt 0.495974 0.672044
vt 0.498042 0.664052
vt 0.251961 0.335947
vt 0.498042 0.335948
vt 0.246945 0.662598
vt 0.003050 0.337407
vt 0.246945 0.337407
vt 0.997058 0.337260
vt 0.752942 0.662745
vt 0.752942 0.337260
vt 0.502756 0.337013
vt 0.747243 0.662992
vt 0.502756 0.662992
vt 0.495844 0.327790
vt 0.254030 0.994632
vt 0.251961 0.664052
vt 0.003050 0.662598
vt 0.997058 0.662745
vt 0.747243 0.337013
vn 0.0000 -1.0000 0.0000
vn 0.0000 1.0000 0.0000
vn 1.0000 -0.0000 0.0000
vn 0.0000 -0.0000 1.0000
vn -1.0000 -0.0000 -0.0000
vn 0.0000 0.0000 -1.0000
usemtl Material.001
s off
f 2/1/1 4/2/1 1/3/1
f 8/4/2 6/5/2 5/6/2
f 5/7/3 2/8/3 1/9/3
f 6/10/4 3/11/4 2/12/4
f 3/13/5 8/14/5 4/15/5
f 1/16/6 8/17/6 5/18/6
f 2/1/1 3/19/1 4/2/1
f 8/4/2 7/20/2 6/5/2
f 5/7/3 6/21/3 2/8/3
f 6/10/4 7/22/4 3/11/4
f 3/13/5 7/23/5 8/14/5
f 1/16/6 4/24/6 8/17/6
